<?xml version="1.0" encoding="utf-8"?>
<!-- Generator: Adobe Adobe Illustrator 29.2.0, SVG Export Plug-In . SVG Version: 6.00 Build 0)  -->
<svg version="1.1" id="Layer_1" xmlns="http://www.w3.org/2000/svg" x="0px" y="0px"
	 width="500px" height="500px" viewBox="0 0 500 500" style="enable-background:new 0 0 500 500;" xml:space="preserve">
<style type="text/css">
	.st0{fill:#CC0000;}
	.st1{fill:currentColor;}
</style>
<g>
	<path class="st0" d="M276.22,479.11c31.28,0,61.1-6.26,88.29-17.69c-35.61,20.47-76.94,32.13-120.89,32.13
		C109.07,493.55,0,384.56,0,250S109.07,6.45,243.63,6.45c43.95,0,85.28,11.66,120.89,32.13c-27.19-11.43-57.01-17.69-88.29-17.69
		C149.7,20.89,47.12,123.47,47.12,250S149.7,479.11,276.22,479.11z"/>
	<path class="st1" d="M500,250c0,120.19-97.4,217.6-217.52,217.6c-36.77,0-71.45-9.11-101.81-25.26
		c26.19,11.74,55.23,18.23,85.74,18.23c116.25,0,210.49-94.32,210.49-210.57S382.67,39.43,266.41,39.43
		c-30.51,0-59.56,6.49-85.74,18.23c30.36-16.14,65.04-25.26,101.81-25.26C402.6,32.4,500,129.81,500,250z"/>
</g>
</svg>
