<?xml version="1.0" encoding="utf-8"?>
<!-- Generator: Adobe Adobe Illustrator 29.2.0, SVG Export Plug-In . SVG Version: 6.00 Build 0)  -->
<svg version="1.1" id="Layer_1" xmlns="http://www.w3.org/2000/svg" xmlns:xlink="http://www.w3.org/1999/xlink" x="0px" y="0px"
	 width="1396.68px" height="146.87px" viewBox="0 0 1396.68 146.87" style="enable-background:new 0 0 1396.68 146.87;"
	 xml:space="preserve">
<style type="text/css">
	.st0{fill:#FFFFFF;}
</style>
<g>
	<g>
		<g>
			<g>
				<path class="st0" d="M125.64,87.38c-1.18,0-2.16-0.95-2.19-2.14c-0.03-1.21,0.93-2.21,2.14-2.24
					c89.91-2.16,181.3-1.49,269.67-0.85c60.74,0.44,123.55,0.9,185.29,0.44h0.02c1.2,0,2.18,0.97,2.19,2.17
					c0.01,1.21-0.96,2.19-2.17,2.2c-61.78,0.46-124.6,0.01-185.36-0.44c-88.34-0.64-179.7-1.31-269.54,0.85
					C125.7,87.38,125.66,87.38,125.64,87.38z"/>
			</g>
		</g>
		<g>
			<path class="st0" d="M61.43,116.37c0.78-1.58,1.52-3.36,1.7-5.12c0.13-1.31-0.07-2.8-1.08-3.74c-1.06-0.99-4.04-1.11-4.54-2.73
				c0.5,0.29,0.95,0.69,1.55,0.88c0.75,0.23,1.43,0.35,2.19,0.17c1.37-0.33,3.18-1.49,3.63-2.87c0.07-0.21-0.05-0.4-0.29-0.4
				c-1.39,0.02-2.25-0.24-3.19-1.29c-0.89-0.99-1.23-2.14-1.39-3.44C59.75,95.69,60.01,93,60.84,91c0.82-1.98,1.89-4.02,3.38-5.56
				c0.55-0.57,1.19-1.04,1.78-1.55c-1.47,2.64-2.33,5.62-2.62,8.65c-0.22,2.32-0.22,4.67,0.23,6.96c0.15,0.74,0.26,1.89,1.01,2.25
				c0.21,0.73,0.49,1.43,0.87,2.05c1.28,2.12,3.26,3.61,5.5,4.49c0.74,0.38,1.55,0.66,2.45,0.78c0.41,0.05,0.81,0.09,1.21,0.11
				c0.34,0.04,0.69,0.07,1.04,0.07c0.08,0,0.14-0.03,0.18-0.07c6.91-0.3,11.83-5.88,9.61-10.24c-2.47-4.86-7.75-2.46-7.34,1.05
				c0,0-0.38,1.37,0.97,1.88c1.35,0.52-0.73,2.6-3.14,1.62c-2.41-0.98-7.72-3.46-2.35-14.87c5.72-12.13,18.17-19.27,38.83-5.88
				c13.4,8.69,16.66,3.17,15.67-1.15c0.02-0.22-0.06-0.45-0.19-0.66c-0.38-1.13-1.06-2.1-1.91-2.63c-1.78-3.45-1.64-8.29-1.1-11.8
				c0.41-2.65,2.06-4.77,3.91-6.61c2.22-2.19,7.14-2.07,6.44,1.92c-0.21,1.21-0.91,2.24-1.81,3.03c-0.8-1.35-3.18-0.65-2.54,0.93
				c0.37,0.92,0.56,1.27,1.25,1.99c0.42,0.44,1.15,0.53,1.68,0.22c3.3-1.98,5.32-6.1,3.79-9.82c-1.66-4.04-6.68-3.08-9.53-1.23
				c-6.71,4.36-8.63,16.8-4.03,23.62c0.08,2.04-0.46,4.48-3.7,3.66c-3.98-0.99-10.17-6.74-20.48-9.28c0.07-0.04,0.13-0.1,0.15-0.17
				c1.92,0.53,4.3,1.02,6.04,0.17c0.84-0.41,3.43-2.77,2.04-3.74c-0.92-0.64-2.04,0.42-1.54,1.35c-1.63,0.52-3.87,0.26-5.35,0.16
				c-1.07-0.07-2.16-0.35-3.13-0.84c-0.64-0.42-1.28-0.9-1.9-1.41c-0.24-0.24-0.49-0.47-0.69-0.75c-0.03-0.04-0.05-0.1-0.08-0.14
				c-0.01-0.02,0.01-0.03,0-0.05c-0.25-0.54-0.55-1.08-0.74-1.64c-0.28-0.63-0.32-1.3-0.13-2.01c1.36-0.48,1.98-0.3,1.84,0.55
				c0,0.22,0.24,0.29,0.4,0.25c0.3-0.07,0.5-0.27,0.63-0.52c0.05-0.04,0.09-0.1,0.1-0.18c0-0.02,0-0.05,0.01-0.07
				c0.17-0.53,0.12-1.19,0-1.63c-0.41-1.54-1.6-1.97-3.04-2.09c-0.01-0.03-0.05-0.03-0.07-0.06c0.24-0.63,0.6-1.19,1.17-1.7
				c0.44-0.4,1.68-1.48,2.53-1.56c-0.45,0.52-0.01,1.19,0.9,1.31c1.55,0.21,2.37-1.28,2.02-2.68c-0.46-1.84-2.49-3.23-4.3-3.33
				c-0.48-0.03-0.99,0.03-1.51,0.15c-1.9-0.07-3.9,0.53-5.26,1.83c-1.79,1.7-2.36,4.21-2.16,6.6c-0.06,0.04-0.11,0.09-0.17,0.13
				c-0.09-0.02-0.15-0.03-0.15-0.03s-0.11,0.09-0.25,0.32c-1.09,0.89-1.84,2.02-1.88,3.55c-0.01,0.29,0.04,0.56,0.08,0.84
				c-4.74-0.03-8.56-0.82-13.16-3.79c-1.87-1.2-7.02-7.34-2.17-7.06c1.79,0.11,1.76-2.64,0-2.77c-8.18-0.6-13.4,7.83-9.07,15.25
				c2.35,4.02,6.03,6.53,10.79,6.79c0.83,0.05,1.6,0.03,2.35-0.01c-2.15,1.25-4.13,2.76-5.87,4.62c-0.54,0.59-0.99,1.24-1.44,1.89
				c-1.11,0.44-4.56,2.23-6.8,5.09c-2.43,3.1-3.76,6.92-5.16,10.55c-0.74,1.9-1.57,3.89-2.88,5.45c-1.25,1.49-2.27,3.13-3.63,4.54
				c-1.43,1.48-2.95,3.06-4.63,4.25c-1.86,1.32-3.64,1.97-5.91,2.14c-0.2,0.01-0.34,0.28-0.2,0.44c0.57,0.65,1.57,0.76,2.39,0.9
				c1.34,0.23,2.64,0.22,4,0.09c2.68-0.25,5.13-0.68,7.37-2.25c0.9-0.63,1.78-1.26,2.48-2.11c0.44-0.53,0.53-1.13,1.22-1.09
				c0.55,0.03,0.83,0.52,1.21,0.91c1.23,1.27,2.15,2.19,2.36,4.03c0.15,1.35,0.14,2.64,0.2,3.99c0.01,0.17,0.22,0.31,0.38,0.24
				C60.33,119.16,60.95,117.33,61.43,116.37z M88.97,63.51c-0.2-0.14-0.38-0.25-0.55-0.33c-0.26-2.11,0-4.25,1.39-6.01
				c0.88-1.12,2.17-1.82,3.55-2.13c-0.91,0.49-1.72,1.16-2.21,1.9c-1.57,2.33-1.72,4.92-1.09,7.42
				C89.66,64.02,89.3,63.72,88.97,63.51z M69.85,79.86c1.75-1.68,3.72-2.99,5.84-4.06c1.89-0.27,3.68-0.8,5.71-1.62
				c1.91-0.77,4.16-0.1,6.19-0.38c0.5,0.13,0.8-0.57,1.29-0.41c0.59,0.2,1.17,0.28,1.76,0.37c-0.99-0.02-2.01-0.01-3.06,0.04
				c-9.87,0.48-15.89,5.54-19.36,10.88c-0.4,0.3-4.87,6.93-4.23,13.61c0.07,0.68,0.15,1.4,0.29,2.12c-0.41-1.23-0.45-3.37-0.47-3.87
				c-0.09-2.17,0.07-4.39,0.52-6.51C65.2,86,66.89,82.71,69.85,79.86z"/>
		</g>
	</g>
	<g>
		<g>
			<g>
				<path class="st0" d="M1232.45,87.47c-14.36,0-29.47-0.03-45.56-0.1c-33.38-0.14-67.31-0.41-100.12-0.67
					c-32.53-0.26-66.16-0.52-99.25-0.67c-58.74-0.25-174.94-0.24-236.74,0.86c-0.01,0-0.03,0-0.04,0c-1.19,0-2.16-0.95-2.19-2.15
					c-0.02-1.21,0.94-2.2,2.15-2.23c61.82-1.09,178.07-1.11,236.83-0.86c33.09,0.14,66.73,0.41,99.26,0.67
					c32.81,0.26,66.74,0.53,100.1,0.67c30.73,0.13,57.91,0.13,83.08,0.02h0.01c1.2,0,2.18,0.97,2.19,2.18
					c0.01,1.21-0.97,2.19-2.18,2.2C1258.01,87.44,1245.54,87.47,1232.45,87.47z"/>
			</g>
		</g>
		<g>
			<path class="st0" d="M1337.39,121.77c0.16,0.08,0.37-0.06,0.38-0.24c0.05-1.35,0.04-2.64,0.2-3.99c0.21-1.83,1.12-2.76,2.36-4.03
				c0.38-0.38,0.66-0.88,1.21-0.91c0.7-0.04,0.78,0.56,1.22,1.09c0.7,0.85,1.59,1.49,2.48,2.11c2.24,1.57,4.69,2,7.37,2.25
				c1.35,0.13,2.65,0.14,4-0.09c0.82-0.14,1.82-0.24,2.39-0.9c0.14-0.16-0.01-0.43-0.2-0.44c-2.27-0.17-4.05-0.82-5.91-2.14
				c-1.68-1.18-3.2-2.77-4.63-4.25c-1.36-1.41-2.37-3.05-3.63-4.54c-1.32-1.57-2.15-3.55-2.88-5.45c-1.4-3.63-2.73-7.45-5.16-10.55
				c-2.24-2.86-5.69-4.65-6.8-5.09c-0.45-0.65-0.89-1.31-1.44-1.89c-1.74-1.86-3.72-3.38-5.87-4.62c0.75,0.04,1.52,0.05,2.35,0.01
				c4.76-0.26,8.45-2.77,10.79-6.79c4.33-7.41-0.89-15.85-9.07-15.25c-1.76,0.13-1.79,2.87,0,2.77c4.85-0.28-0.3,5.86-2.17,7.06
				c-4.6,2.97-8.42,3.76-13.16,3.79c0.04-0.28,0.09-0.55,0.08-0.84c-0.05-1.53-0.79-2.67-1.88-3.55c-0.13-0.23-0.25-0.32-0.25-0.32
				s-0.06,0.01-0.15,0.03c-0.06-0.04-0.11-0.09-0.17-0.13c0.2-2.39-0.36-4.89-2.16-6.6c-1.36-1.3-3.36-1.9-5.26-1.83
				c-0.52-0.12-1.03-0.17-1.51-0.15c-1.81,0.1-3.84,1.49-4.3,3.33c-0.35,1.4,0.47,2.89,2.02,2.68c0.92-0.13,1.35-0.8,0.9-1.31
				c0.85,0.08,2.1,1.15,2.53,1.56c0.56,0.52,0.92,1.07,1.17,1.7c-0.02,0.02-0.07,0.03-0.07,0.06c-1.45,0.12-2.63,0.55-3.04,2.09
				c-0.12,0.43-0.17,1.1,0,1.63c0,0.02,0,0.05,0.01,0.07c0.01,0.09,0.05,0.14,0.1,0.18c0.13,0.25,0.33,0.45,0.63,0.52
				c0.17,0.04,0.41-0.03,0.4-0.25c-0.14-0.85,0.48-1.03,1.84-0.55c0.19,0.71,0.15,1.38-0.13,2.01c-0.19,0.56-0.48,1.11-0.74,1.64
				c-0.01,0.02,0.01,0.03,0,0.05c-0.03,0.05-0.05,0.1-0.08,0.14c-0.2,0.28-0.45,0.51-0.69,0.75c-0.62,0.52-1.25,0.99-1.9,1.42
				c-0.98,0.48-2.06,0.77-3.13,0.84c-1.48,0.1-3.72,0.36-5.35-0.16c0.5-0.92-0.62-1.99-1.54-1.35c-1.38,0.97,1.2,3.33,2.04,3.74
				c1.74,0.84,4.12,0.36,6.04-0.17c0.03,0.07,0.08,0.13,0.15,0.17c-10.32,2.53-16.5,8.28-20.48,9.28c-3.25,0.81-3.78-1.62-3.7-3.66
				c4.6-6.82,2.68-19.26-4.03-23.62c-2.85-1.85-7.87-2.81-9.53,1.23c-1.53,3.72,0.5,7.84,3.79,9.82c0.52,0.31,1.25,0.23,1.68-0.22
				c0.69-0.72,0.88-1.07,1.25-1.99c0.63-1.58-1.75-2.28-2.54-0.93c-0.9-0.79-1.6-1.82-1.81-3.03c-0.7-3.99,4.22-4.12,6.44-1.92
				c1.85,1.83,3.5,3.96,3.91,6.61c0.54,3.51,0.68,8.35-1.1,11.8c-0.85,0.53-1.53,1.5-1.91,2.63c-0.13,0.22-0.21,0.44-0.19,0.66
				c-0.99,4.32,2.27,9.84,15.67,1.15c20.65-13.39,33.11-6.26,38.83,5.88c5.38,11.41,0.07,13.89-2.35,14.87
				c-2.41,0.98-4.49-1.1-3.14-1.62c1.35-0.52,0.97-1.88,0.97-1.88c0.41-3.51-4.87-5.91-7.34-1.05c-2.22,4.36,2.7,9.94,9.61,10.24
				c0.04,0.05,0.1,0.07,0.18,0.07c0.34-0.01,0.69-0.04,1.04-0.07c0.4-0.02,0.8-0.05,1.21-0.11c0.9-0.12,1.71-0.4,2.45-0.78
				c2.24-0.88,4.22-2.37,5.5-4.49c0.38-0.63,0.66-1.33,0.87-2.05c0.75-0.36,0.86-1.51,1.01-2.25c0.45-2.29,0.45-4.64,0.23-6.96
				c-0.29-3.03-1.14-6.01-2.62-8.65c0.59,0.52,1.23,0.98,1.78,1.55c1.49,1.54,2.56,3.57,3.38,5.56c0.83,2,1.08,4.68,0.82,6.81
				c-0.16,1.3-0.5,2.45-1.39,3.44c-0.94,1.05-1.81,1.31-3.19,1.29c-0.23,0-0.35,0.19-0.29,0.4c0.44,1.38,2.25,2.55,3.63,2.87
				c0.77,0.18,1.45,0.06,2.2-0.17c0.6-0.19,1.05-0.58,1.55-0.88c-0.5,1.63-3.48,1.74-4.54,2.73c-1.01,0.94-1.21,2.43-1.08,3.74
				c0.18,1.77,0.92,3.54,1.7,5.12C1335.72,119.45,1336.34,121.27,1337.39,121.77z M1306.62,66.48c0.63-2.5,0.48-5.09-1.09-7.42
				c-0.5-0.74-1.31-1.41-2.22-1.9c1.38,0.31,2.67,1.01,3.55,2.13c1.39,1.76,1.65,3.9,1.39,6.01c-0.17,0.09-0.35,0.19-0.55,0.33
				C1307.37,65.84,1307.01,66.13,1306.62,66.48z M1332.33,92.14c0.45,2.13,0.61,4.34,0.52,6.51c-0.02,0.5-0.06,2.63-0.47,3.87
				c0.13-0.71,0.23-1.43,0.29-2.11c0.64-6.68-3.83-13.32-4.23-13.61c-3.47-5.34-9.49-10.4-19.36-10.88
				c-1.05-0.05-2.06-0.06-3.06-0.04c0.59-0.09,1.17-0.17,1.76-0.37c0.5-0.17,0.79,0.54,1.29,0.41c2.03,0.28,4.28-0.39,6.19,0.38
				c2.03,0.82,3.82,1.35,5.71,1.62c2.12,1.07,4.08,2.39,5.84,4.06C1329.79,84.82,1331.48,88.12,1332.33,92.14z"/>
		</g>
	</g>
	<g>
		<g>
			<path class="st0" d="M681.94,45.36c-0.54-0.15-4.4-2.78-6.55-5.09c-4.68-5.48-8.96-18.86-9.18-18.89
				c-0.2-0.02-4.45,13.41-9.12,18.89c-2.16,2.31-6,4.97-6.55,5.09c9.48-2.04,15.57,17.11,15.77,17.11
				C666.49,62.47,673.47,43.06,681.94,45.36z"/>
		</g>
		<g>
			<g>
				<g>
					<path class="st0" d="M574.75,38.68c-0.3,0.41-0.55,0.82-0.76,1.23c-2.38,4.8-1.83,9.94,0.31,14.46
						c0.44,1.4,1.17,2.81,2.23,4.19c1.84,2.41,4.51,4.83,7.57,6.83c0.77,0.56,1.55,1.07,2.35,1.56c-1.96-0.27-3.78-0.71-5.57-1.36
						c-0.76-0.44-1.51-0.9-2.19-1.41c-0.07-0.12-0.17-0.23-0.32-0.31c-0.09-0.05-0.17-0.1-0.26-0.15c-0.63-0.51-1.22-1.05-1.76-1.63
						c-3.42-3.67-6.76-8.78-6.61-13.96C569.84,44.4,571.91,41.12,574.75,38.68z M565.3,48.48c0.6,3.47,2.77,6.36,4.89,9.17
						c0.97,1.28,1.91,2.65,2.97,3.89c-1.38-0.85-2.75-1.74-4.01-2.74C566.56,56.73,562.24,51.94,565.3,48.48z M583.44,69.31
						c-0.4-0.06-0.8-0.12-1.2-0.2c-3.25-0.61-6.44-1.6-9.28-3.33c-1.94-1.18-6.07-4.49-6.41-7.24c0.77,0.74,1.6,1.43,2.47,2.07
						c3.97,2.94,7.94,5.31,12.31,6.71c1.98,0.99,4.12,1.73,6.35,2.3c-1.28-0.01-2.57-0.09-3.87-0.26
						C583.7,69.31,583.57,69.28,583.44,69.31z"/>
				</g>
				<g>
					<g>
						<path class="st0" d="M590.29,84.59c-0.12-1.81-2.74-4.46-1.8-6.38c0.21,0.7,0.27,1.45,0.66,2.13c0.48,0.85,1,1.54,1.86,2.04
							c1.53,0.88,4.18,1.37,5.77,0.48c0.25-0.13,0.3-0.41,0.08-0.61c-1.28-1.17-1.84-2.15-1.8-3.91c0.03-1.66,0.71-3,1.68-4.32
							c1.58-2.16,4.11-4.4,6.58-5.5c2.45-1.11,5.16-2.05,7.84-2.18c1.83-0.09,3.67,0.45,5.43-0.18c0.27-0.09,0.28-0.44,0.08-0.61
							c-0.09-0.08-0.17-0.15-0.26-0.23c-0.12-0.11-0.25-0.1-0.36-0.04c-0.96-0.68-2.75-0.65-3.8-0.8c-2.21-0.32-4.49-0.1-6.68,0.26
							c-4.85,0.8-9.35,3.09-13.74,5.21c-2.3,1.11-4.76,2.21-7.3,2.51c-2.42,0.29-4.75,0.91-7.2,1.03c-2.57,0.13-5.32,0.27-7.86-0.09
							c-2.83-0.39-5.01-1.32-7.22-3.11c-0.19-0.16-0.56-0.04-0.56,0.23c-0.04,1.09,0.79,2.04,1.42,2.87
							c1.03,1.36,2.22,2.46,3.57,3.51c2.67,2.06,5.26,3.77,8.65,4.26c1.35,0.19,2.71,0.37,4.07,0.2c0.86-0.11,1.45-0.58,2.05,0.05
							c0.47,0.5,0.31,1.19,0.32,1.86c0.04,2.21,0.08,3.84-1.29,5.69c-1.01,1.36-2.13,2.53-3.23,3.8c-0.14,0.16-0.07,0.47,0.15,0.54
							c1.38,0.44,3.51-0.69,4.77-1.16c2.06-0.78,4.26-1.76,5.94-3.22C589.31,87.85,590.41,86.32,590.29,84.59z"/>
					</g>
					<g>
						<path class="st0" d="M663.62,90.64c-0.29-1.37-2.22-1.35-2.56-0.09c-1.94-0.92-3.75-3.08-5.02-4.44
							c-1.87-2-3.05-4.84-2.65-7.63c0.37-2.58,2.12-5.26,4.09-6.93c1.19-1.01,2.38-1.49,3.95-1.47c0.75,0.01,2.8,0.09,3.65,0.75
							c-0.85,0.09-1.03,1.07-0.3,1.97c1.23,1.51,3.26,0.86,4.13-0.72c1.15-2.07,0.5-5.07-1.07-6.72c-0.41-0.43-0.93-0.82-1.5-1.15
							c-1.67-1.68-4.01-2.85-6.36-2.83c-3.34,0.02-6.22,2.09-8.08,4.72c-2.1,2.97-3.26,6.08-3.13,9.72c0.16,4.22,1.91,7.38,3.91,11
							c0.11,0.21,0.34,0.23,0.51,0.16c1.29,2.12,3.05,4.61,5.36,5.33C659.67,92.65,664.05,92.71,663.62,90.64z M651.28,68.45
							c1.66-3.01,4.09-5.75,7.68-6.29c1.76-0.27,3.53,0.2,5.06,1.1c-1.25-0.33-2.55-0.41-3.65-0.17c-6.72,1.53-9.35,8.61-9.85,14.81
							c-0.11,1.4,0.02,2.7,0.33,3.96c-0.55-1.21-1-2.47-1.19-3.81C649.16,74.58,649.58,71.54,651.28,68.45z"/>
					</g>
					<g>
						<path class="st0" d="M671.98,100.01c0,0-4.58,8.58-8.32,2.77c-3.45-5.36-3.71-10.09-17.25-23.89c0.25-0.02,0.46-0.3,0.27-0.56
							c-0.97-1.28-1.75-2.51-2.58-3.89c-0.66-1.1-1.47-2.07-2.51-2.82c-2.16-1.56-4.75-2.77-7.18-3.82c-4.81-2.07-9.85-3-15.08-2.65
							c-5.53,0.37-10.62,3.03-14.74,6.66c-2.18,1.93-4.19,4.07-5.75,6.54c-0.5,0.8-1.38,1.95-1.01,2.91
							c-0.43,0.85-0.77,1.72-0.96,2.62c-0.65,3.02-0.11,6.08,1.17,8.81c0.34,0.98,0.84,1.93,1.56,2.81c0.33,0.4,0.66,0.77,1.01,1.13
							c0.29,0.33,0.58,0.65,0.88,0.96c0.07,0.07,0.15,0.1,0.23,0.09c6.56,5.64,15.82,4.77,17.53-1.11c1.91-6.55-4.96-8.88-7.59-5.33
							c0,0-1.51,0.93-0.73,2.55c0.79,1.62-2.89,1.75-4.25-1.21c-1.36-2.96-4.08-9.77,10.59-15.57c15.6-6.17,33.06-2.02,40.44,27.87
							C665.08,134.74,679.38,103.04,671.98,100.01z M615.74,68.78c-0.62-0.07-10.37,2.15-15.5,8.79c-0.52,0.68-1.06,1.41-1.54,2.18
							c0.68-1.48,2.47-3.46,2.88-3.93c1.78-2.06,3.82-3.94,6.05-5.5c4.22-2.93,8.59-4.5,13.73-4.55c4.84-0.05,9.44,1.11,13.82,3.14
							c2.18,1.01,4.65,2.09,6.49,3.65c1.17,0.98,1.86,2.29,2.58,3.6c0.37,0.69,0.83,1.26,1.29,1.84c-0.89-0.86-1.82-1.72-2.82-2.58
							C633.3,67.41,623.48,66.88,615.74,68.78z"/>
					</g>
					<g>
						<path class="st0" d="M653.29,84.58c-0.38,0.05-0.75-0.06-1.09-0.27c-0.02-0.05-0.05-0.1-0.1-0.15
							c-0.17-0.13-0.34-0.24-0.52-0.34c-0.94-0.92-1.69-2.43-2.12-3.24c-0.85-1.58-1.76-3.29-1.8-5.11
							c-0.04-1.81,0.26-3.85,0.92-5.56c0.56-1.43,2.1-3.13,3.7-3.45c0,0,0.01-0.01,0.01-0.01c0.11-0.31,0.26-0.61,0.45-0.86l-0.01,0
							c-2.21-0.44-4.32-0.18-5.98,1.49c-1.51,1.51-2.1,3.62-1.91,5.71c0.22,2.42,0.54,5.2,1.86,7.3c0.68,1.09,1.56,2.05,2.5,2.91
							c0.53,0.49,1.1,0.8,1.66,1.13c0.68,0.78,1.51,1.37,2.53,1.2C653.86,85.26,653.78,84.52,653.29,84.58z"/>
					</g>
					<g>
						<path class="st0" d="M658.53,76.74c0.6-0.34,1.13-0.99,1.4-1.48c0.94-1.75,0.22-3.16-0.99-4.51c0.05-0.1,0.05-0.22-0.06-0.34
							c-0.54-0.64-2.49-0.7-2.23,0.51c0.05,0.22,0.33,0.4,0.46,0.56c0.27,0.31,0.51,0.64,0.75,0.96c0.62,1.04,1.15,2.59,0.4,3.53
							c-0.08,0.09-0.16,0.18-0.25,0.25c0,0-0.01,0.01-0.01,0.01c0.68-1.18,0.42-2.89-1.25-3c-2.58-0.17-3.32,2.9-3.91,4.76
							c-0.14,0.45,0.53,0.73,0.68,0.28c0.23-0.71,0.4-1.47,0.72-2.14c0.28-0.82,0.81-1.47,1.59-1.96c1.65,0.72,2.06,1.42,1.21,2.07
							c-0.19,0.19-0.03,0.47,0.15,0.57c0.34,0.19,0.68,0.18,1.02,0.07c0.08,0.01,0.17-0.01,0.25-0.08
							C658.49,76.78,658.5,76.76,658.53,76.74z"/>
					</g>
				</g>
				<g>
					<path class="st0" d="M582.79,70.98c0,0-14.12,2.73-18.78-2.83c-4.66-5.56-1.13-7.34-0.07-5.94
						C565.01,63.63,568.94,71.73,582.79,70.98z"/>
				</g>
			</g>
			<g>
				<g>
					<path class="st0" d="M763.69,48.14c0.15,5.18-3.19,10.29-6.61,13.96c-0.54,0.58-1.13,1.12-1.76,1.63
						c-0.09,0.05-0.17,0.1-0.26,0.15c-0.16,0.07-0.25,0.19-0.32,0.31c-0.68,0.51-1.43,0.97-2.19,1.41
						c-1.79,0.65-3.61,1.09-5.57,1.36c0.8-0.48,1.58-1,2.35-1.56c3.07-2,5.73-4.42,7.57-6.83c1.05-1.38,1.78-2.79,2.23-4.19
						c2.14-4.52,2.69-9.66,0.31-14.46c-0.2-0.4-0.46-0.82-0.75-1.23C761.51,41.12,763.58,44.4,763.69,48.14z M764.26,58.81
						c-1.26,1.01-2.63,1.89-4.01,2.74c1.05-1.25,2-2.61,2.97-3.89c2.12-2.81,4.29-5.7,4.89-9.17
						C771.17,51.94,766.86,56.73,764.26,58.81z M749.6,69.36c-1.3,0.17-2.59,0.26-3.87,0.26c2.23-0.56,4.37-1.31,6.35-2.3
						c4.37-1.41,8.34-3.77,12.31-6.71c0.87-0.64,1.7-1.33,2.47-2.07c-0.33,2.75-4.47,6.06-6.41,7.24c-2.84,1.72-6.03,2.72-9.28,3.33
						c-0.4,0.07-0.8,0.14-1.2,0.2C749.85,69.28,749.72,69.31,749.6,69.36z"/>
				</g>
				<g>
					<g>
						<path class="st0" d="M745.34,88.93c1.68,1.46,3.87,2.44,5.94,3.22c1.25,0.47,3.39,1.6,4.77,1.16
							c0.21-0.07,0.29-0.38,0.15-0.54c-1.1-1.27-2.22-2.45-3.23-3.8c-1.38-1.84-1.34-3.47-1.29-5.69c0.01-0.68-0.15-1.37,0.33-1.86
							c0.6-0.63,1.19-0.16,2.05-0.05c1.37,0.17,2.72,0,4.07-0.2c3.39-0.49,5.98-2.19,8.65-4.26c1.35-1.04,2.54-2.15,3.57-3.51
							c0.63-0.83,1.45-1.78,1.41-2.87c-0.01-0.27-0.37-0.39-0.56-0.23c-2.22,1.79-4.4,2.71-7.22,3.11
							c-2.54,0.35-5.29,0.21-7.86,0.09c-2.45-0.12-4.77-0.75-7.2-1.03c-2.54-0.3-5-1.4-7.3-2.51c-4.39-2.11-8.88-4.41-13.74-5.21
							c-2.19-0.36-4.47-0.58-6.68-0.26c-1.05,0.15-2.84,0.12-3.8,0.8c-0.11-0.06-0.24-0.07-0.36,0.04
							c-0.09,0.08-0.17,0.15-0.26,0.23c-0.19,0.17-0.19,0.51,0.08,0.61c1.77,0.63,3.6,0.09,5.43,0.18c2.67,0.13,5.39,1.07,7.84,2.18
							c2.46,1.11,4.99,3.34,6.58,5.5c0.96,1.32,1.64,2.66,1.68,4.32c0.04,1.76-0.53,2.74-1.8,3.91c-0.21,0.2-0.16,0.47,0.08,0.61
							c1.58,0.88,4.24,0.4,5.77-0.48c0.86-0.49,1.37-1.19,1.86-2.04c0.39-0.68,0.46-1.43,0.66-2.13c0.94,1.91-1.68,4.57-1.8,6.38
							C743.01,86.32,744.1,87.85,745.34,88.93z"/>
					</g>
					<g>
						<path class="st0" d="M674.86,92.3c2.31-0.72,4.07-3.2,5.36-5.33c0.17,0.07,0.4,0.05,0.51-0.16c2-3.62,3.75-6.78,3.91-11
							c0.14-3.64-1.02-6.74-3.13-9.72c-1.86-2.63-4.74-4.7-8.08-4.72c-2.35-0.02-4.69,1.15-6.36,2.83c-0.57,0.33-1.09,0.72-1.5,1.15
							c-1.57,1.65-2.22,4.65-1.07,6.72c0.88,1.57,2.9,2.23,4.13,0.72c0.73-0.9,0.55-1.88-0.3-1.97c0.85-0.66,2.9-0.74,3.65-0.75
							c1.57-0.02,2.75,0.46,3.95,1.47c1.98,1.67,3.72,4.35,4.09,6.93c0.4,2.8-0.78,5.63-2.65,7.63c-1.27,1.36-3.08,3.51-5.02,4.44
							c-0.34-1.27-2.27-1.28-2.56,0.09C669.37,92.71,673.74,92.65,674.86,92.3z M683.75,78.06c-0.19,1.34-0.64,2.6-1.19,3.81
							c0.32-1.25,0.45-2.56,0.33-3.96c-0.51-6.2-3.13-13.28-9.85-14.81c-1.09-0.25-2.39-0.17-3.65,0.17c1.53-0.9,3.3-1.36,5.06-1.1
							c3.59,0.54,6.02,3.28,7.68,6.29C683.83,71.54,684.26,74.58,683.75,78.06z"/>
					</g>
					<g>
						<path class="st0" d="M675.71,104.85c7.37-29.89,24.84-34.05,40.44-27.87c14.67,5.8,11.95,12.61,10.59,15.57
							c-1.36,2.96-5.03,2.84-4.25,1.21c0.79-1.62-0.73-2.55-0.73-2.55c-2.63-3.55-9.5-1.22-7.59,5.33
							c1.71,5.88,10.97,6.75,17.53,1.11c0.07,0.01,0.15-0.02,0.23-0.09c0.3-0.31,0.6-0.63,0.88-0.96c0.34-0.36,0.68-0.73,1.01-1.13
							c0.72-0.88,1.22-1.82,1.56-2.81c1.29-2.72,1.82-5.78,1.17-8.81c-0.19-0.9-0.54-1.77-0.96-2.62c0.38-0.96-0.5-2.11-1.01-2.91
							c-1.55-2.47-3.56-4.61-5.75-6.54c-4.12-3.64-9.21-6.29-14.74-6.66c-5.23-0.35-10.27,0.58-15.08,2.65
							c-2.43,1.05-5.03,2.25-7.18,3.82c-1.04,0.76-1.85,1.72-2.51,2.82c-0.83,1.38-1.62,2.61-2.58,3.89
							c-0.19,0.26,0.03,0.54,0.27,0.56c-13.53,13.8-13.79,18.53-17.25,23.89c-3.74,5.81-8.32-2.77-8.32-2.77
							C654.03,103.04,668.33,134.74,675.71,104.85z M690.71,75.43c-1,0.85-1.94,1.71-2.82,2.58c0.47-0.58,0.92-1.15,1.29-1.84
							c0.72-1.31,1.42-2.62,2.58-3.6c1.84-1.55,4.31-2.64,6.49-3.65c4.38-2.02,8.98-3.19,13.82-3.14c5.14,0.06,9.5,1.62,13.73,4.55
							c2.23,1.55,4.27,3.44,6.05,5.5c0.41,0.47,2.2,2.45,2.88,3.93c-0.49-0.77-1.02-1.5-1.55-2.18c-5.13-6.64-14.89-8.87-15.5-8.79
							C709.94,66.88,700.12,67.41,690.71,75.43z"/>
					</g>
					<g>
						<path class="st0" d="M680.13,84.58c0.38,0.05,0.75-0.06,1.09-0.27c0.02-0.05,0.05-0.1,0.1-0.15c0.17-0.13,0.34-0.24,0.52-0.34
							c0.94-0.92,1.68-2.43,2.12-3.24c0.85-1.58,1.76-3.29,1.8-5.11c0.04-1.81-0.26-3.85-0.92-5.56c-0.56-1.43-2.1-3.13-3.7-3.45
							c-0.01,0-0.01-0.01-0.01-0.01c-0.11-0.31-0.26-0.61-0.45-0.86c0,0,0.01,0,0.01,0c2.21-0.44,4.32-0.18,5.98,1.49
							c1.51,1.51,2.1,3.62,1.91,5.71c-0.22,2.42-0.54,5.2-1.86,7.3c-0.68,1.09-1.56,2.05-2.5,2.91c-0.53,0.49-1.1,0.8-1.66,1.13
							c-0.68,0.78-1.51,1.37-2.53,1.2C679.55,85.26,679.63,84.52,680.13,84.58z"/>
					</g>
					<g>
						<path class="st0" d="M674.95,76.8c0.08,0.07,0.17,0.09,0.25,0.08c0.34,0.11,0.68,0.13,1.02-0.07
							c0.18-0.11,0.34-0.38,0.15-0.57c-0.85-0.66-0.45-1.35,1.21-2.07c0.78,0.49,1.31,1.14,1.59,1.96c0.31,0.68,0.49,1.44,0.72,2.14
							c0.15,0.45,0.82,0.17,0.68-0.28c-0.6-1.87-1.33-4.93-3.91-4.76c-1.67,0.11-1.93,1.82-1.25,3c0,0-0.01-0.01-0.01-0.01
							c-0.09-0.07-0.17-0.16-0.25-0.25c-0.76-0.94-0.22-2.49,0.4-3.53c0.25-0.33,0.48-0.66,0.75-0.96c0.13-0.15,0.41-0.34,0.46-0.56
							c0.27-1.21-1.68-1.15-2.23-0.51c-0.1,0.12-0.1,0.24-0.06,0.34c-1.21,1.35-1.93,2.76-0.99,4.51c0.27,0.5,0.79,1.15,1.4,1.48
							C674.91,76.76,674.93,76.78,674.95,76.8z"/>
					</g>
				</g>
				<g>
					<path class="st0" d="M750.63,70.98c0,0,14.12,2.73,18.78-2.83c4.66-5.56,1.13-7.34,0.07-5.94S764.48,71.73,750.63,70.98z"/>
				</g>
			</g>
		</g>
		<g>
			<path class="st0" d="M666.43,114.2c-4.47,0-8.09-3.62-8.09-8.09s3.62-8.1,8.09-8.1s8.1,3.62,8.1,8.1S670.9,114.2,666.43,114.2z"
				/>
		</g>
		<g>
			<path class="st0" d="M643.67,73.92c0,0-25.58-25.37-51.16-10.31C592.51,63.61,618.09,40.47,643.67,73.92z"/>
		</g>
		<g>
			<path class="st0" d="M688.77,75.38c0,0,25.58-25.37,51.16-10.31C739.93,65.07,714.35,41.93,688.77,75.38z"/>
		</g>
	</g>
</g>
</svg>
