<?xml version="1.0" encoding="utf-8"?>
<!-- Generator: Adobe Adobe Illustrator 29.2.0, SVG Export Plug-In . SVG Version: 6.00 Build 0)  -->
<svg version="1.1" id="Layer_1" xmlns="http://www.w3.org/2000/svg" x="0px" y="0px"
	 width="679.07px" height="118.43px" viewBox="0 0 679.07 118.43" style="enable-background:new 0 0 679.07 118.43;"
	 xml:space="preserve">
<style type="text/css">
	.st0{fill:#FFFFFF;}
</style>
<g>
	<g>
		<g>
			<g>
				<g>
					<g>
						<g>
							<path class="st0" d="M339.05,86.88c-0.04-0.73-0.15-1.42-0.29-2.06c0.13,0.14,0.27,0.28,0.41,0.4
								c0.81,0.66,1.71,0.94,2.46,1.05c0.76,0.11,1.44,0.09,2.07,0.01c0.31-0.03,0.61-0.09,0.91-0.14c0.3-0.08,0.6-0.16,0.89-0.24
								c1.14-0.35,2.08-0.84,2.8-1.25c0.96-0.52,1.81-1.02,2.72-1.29c0.23-0.08,0.46-0.11,0.7-0.17l0.36-0.08l0.39-0.04
								c0.53-0.07,1.06-0.09,1.6-0.11c1.06-0.02,2.14,0.05,3.23,0.24c1,0.19,2.14,0.6,3.05,0.99c-0.77-0.62-1.87-1.21-2.85-1.64
								c-1.06-0.45-2.16-0.79-3.28-1.05c-0.57-0.11-1.13-0.23-1.71-0.31l-0.43-0.06l-0.46-0.02c-0.31-0.01-0.63-0.04-0.94-0.02
								c-1.26,0.04-2.46,0.36-3.53,0.62c-0.83,0.22-1.66,0.41-2.46,0.49c-0.2,0.01-0.39,0.03-0.59,0.05c-0.21,0-0.43,0.01-0.63,0
								c-0.41-0.01-0.8-0.06-1.08-0.14c-0.3-0.07-0.42-0.18-0.43-0.2c0.01-0.01,0,0,0.01-0.01c0,0,0,0,0,0c0-0.01,0-0.02-0.01-0.02
								c-0.02-0.01-0.01-0.04-0.03-0.06c-0.01-0.01-0.02-0.02-0.03-0.03c0,0,0.01,0,0.01,0c-0.02,0.01-0.05-0.01-0.08-0.04
								c-0.02-0.04,0-0.14,0.02-0.22c0,0,0.01-0.04,0.01-0.11c0.01-0.05,0.01-0.2,0.15-0.29c0.02-0.01,0.04-0.03,0.06-0.04
								l0.07-0.02c0.05-0.01,0.11-0.03,0.18-0.04c0.13,0.01,0.29,0.01,0.46,0.02c0.32,0.05,0.69,0.08,1.02-0.07
								c0.32-0.17,0.47-0.51,0.46-1c-0.02-0.24-0.12-0.51-0.26-0.79c-0.08-0.14-0.19-0.27-0.31-0.41c-0.06-0.07-0.12-0.14-0.18-0.2
								c-0.07-0.06-0.15-0.11-0.23-0.17c-0.16-0.11-0.32-0.22-0.5-0.3c-0.18-0.07-0.37-0.14-0.56-0.19
								c-0.19-0.06-0.37-0.06-0.54-0.08c-0.18-0.01-0.35-0.03-0.5,0c-0.3,0.04-0.56,0.07-0.72,0.13c-0.16,0.06-0.26,0.09-0.26,0.09
								c-0.8,0.31-1.52,0.88-2.02,1.7c-0.3,0.49-0.48,1.07-0.54,1.66c-0.15-0.31-0.24-0.48-0.24-0.48s-0.1,0.17-0.24,0.48
								c-0.06-0.6-0.25-1.17-0.54-1.66c-0.5-0.82-1.22-1.39-2.02-1.7c0,0-0.09-0.03-0.26-0.09c-0.16-0.06-0.42-0.09-0.72-0.13
								c-0.15-0.02-0.32-0.01-0.49,0c-0.18,0.02-0.36,0.02-0.54,0.08c-0.19,0.05-0.38,0.12-0.56,0.19c-0.18,0.08-0.34,0.2-0.5,0.3
								c-0.08,0.06-0.16,0.11-0.23,0.17c-0.06,0.07-0.12,0.13-0.18,0.2c-0.11,0.14-0.22,0.27-0.31,0.41
								c-0.13,0.28-0.23,0.55-0.26,0.79c-0.01,0.49,0.14,0.83,0.46,1c0.33,0.15,0.7,0.12,1.02,0.07c0.17-0.02,0.33-0.01,0.46-0.02
								c0.07,0.01,0.13,0.03,0.18,0.04l0.07,0.02c0.02,0.01,0.04,0.03,0.06,0.04c0.14,0.08,0.14,0.24,0.15,0.29
								c0.01,0.07,0.01,0.11,0.01,0.11c0.01,0.08,0.03,0.17,0.01,0.22c-0.02,0.04-0.06,0.05-0.08,0.04c0,0,0,0,0.01,0
								c-0.01,0.01-0.02,0.02-0.03,0.03c-0.02,0.02-0.01,0.06-0.03,0.06c-0.01,0.01-0.01,0.01-0.01,0.02c0,0-0.01,0,0,0
								c0.01,0.01-0.01-0.01,0.01,0.01c-0.01,0.01-0.14,0.12-0.43,0.2c-0.28,0.08-0.67,0.13-1.08,0.14c-0.21,0.01-0.42,0.01-0.63,0
								c-0.2-0.02-0.39-0.03-0.59-0.05c-0.8-0.08-1.63-0.27-2.46-0.49c-1.07-0.26-2.26-0.59-3.53-0.62
								c-0.31-0.02-0.63,0.01-0.94,0.02l-0.46,0.02l-0.43,0.06c-0.57,0.07-1.14,0.19-1.71,0.31c-1.12,0.26-2.22,0.6-3.28,1.05
								c-0.98,0.43-2.08,1.02-2.85,1.64c0.91-0.39,2.05-0.8,3.05-0.99c1.09-0.19,2.17-0.26,3.23-0.24c0.54,0.03,1.07,0.05,1.6,0.11
								l0.39,0.04l0.36,0.08c0.24,0.06,0.47,0.08,0.7,0.17c0.91,0.27,1.76,0.76,2.72,1.29c0.72,0.4,1.66,0.9,2.8,1.25
								c0.29,0.08,0.59,0.16,0.9,0.24c0.3,0.06,0.59,0.11,0.91,0.14c0.62,0.07,1.3,0.1,2.07-0.01c0.75-0.11,1.65-0.39,2.46-1.05
								c0.14-0.12,0.28-0.26,0.41-0.4c-0.14,0.64-0.24,1.33-0.29,2.06c-0.02,0.25-0.03,0.5-0.03,0.76c0,0.25,0.01,0.5,0.02,0.74
								c0.2,3.34,1.67,5.94,1.67,5.94s1.47-2.6,1.67-5.94c0.02-0.24,0.02-0.49,0.02-0.74C339.07,87.38,339.07,87.13,339.05,86.88z"
								/>
						</g>
					</g>
				</g>
			</g>
			<g>
				<g>
					<g>
						<path class="st0" d="M341.39,73.38c-0.15-0.04-1.17-0.74-1.75-1.36c-1.25-1.46-2.39-5.03-2.45-5.04
							c-0.05-0.01-1.19,3.58-2.43,5.04c-0.58,0.61-1.6,1.33-1.75,1.36c2.53-0.54,4.15,4.57,4.21,4.57
							C337.27,77.94,339.13,72.76,341.39,73.38z"/>
					</g>
				</g>
			</g>
		</g>
		<g>
			<g>
				<g>
					<g>
						<path class="st0" d="M426.36,55.87c0.05-0.41,0.07-0.8,0.06-1.16c-0.16-4.33-2.53-7.76-5.79-10.14
							c-0.85-0.82-1.91-1.54-3.19-2.11c-2.23-1-5.06-1.69-8-1.92c-0.76-0.1-1.51-0.16-2.27-0.2c1.49-0.56,2.96-0.95,4.48-1.18
							c0.71,0.02,1.41,0.06,2.1,0.16c0.1,0.06,0.21,0.1,0.35,0.09c0.08,0,0.16,0.01,0.24,0c0.64,0.12,1.27,0.27,1.88,0.48
							c3.84,1.28,8.18,3.62,10.07,7.35C427.64,49.92,427.43,53.04,426.36,55.87z M429.28,45.27c-1.77-2.23-4.42-3.44-7-4.62
							c-1.18-0.54-2.38-1.14-3.61-1.62c1.31,0.07,2.62,0.17,3.9,0.4C425.21,39.91,430.12,41.64,429.28,45.27z M408.39,37.49
							c0.31-0.11,0.61-0.22,0.93-0.33c2.54-0.82,5.19-1.34,7.86-1.21c1.83,0.09,6.04,0.85,7.33,2.67c-0.83-0.23-1.69-0.39-2.55-0.52
							c-3.95-0.56-7.68-0.71-11.32-0.02c-1.79,0.06-3.59,0.36-5.39,0.82c0.91-0.49,1.86-0.92,2.84-1.3
							C408.21,37.59,408.31,37.55,408.39,37.49z"/>
					</g>
				</g>
			</g>
			<g>
				<g>
					<g>
						<g>
							<path class="st0" d="M397.64,29.29c0.78,1.24,3.66,2.11,3.73,3.83c-0.41-0.41-0.75-0.92-1.29-1.26
								c-0.67-0.42-1.3-0.71-2.1-0.73c-1.43-0.03-3.49,0.64-4.28,1.88c-0.12,0.19-0.05,0.41,0.17,0.46
								c1.36,0.34,2.13,0.81,2.79,2.08c0.61,1.19,0.65,2.41,0.48,3.71c-0.29,2.14-1.22,4.7-2.54,6.44
								c-1.31,1.73-2.87,3.44-4.72,4.56c-1.27,0.77-2.77,1.09-3.79,2.22c-0.15,0.17-0.03,0.42,0.17,0.46
								c0.09,0.02,0.18,0.04,0.27,0.06c0.13,0.03,0.22-0.03,0.27-0.11c0.95,0.11,2.2-0.6,3-0.9c1.69-0.63,3.22-1.66,4.64-2.76
								c3.14-2.44,5.44-5.8,7.74-8.99c1.2-1.67,2.52-3.4,4.21-4.59c1.61-1.14,3.02-2.48,4.71-3.51c1.77-1.08,3.67-2.24,5.61-2.97
								c2.16-0.81,4.06-0.99,6.32-0.58c0.2,0.04,0.41-0.19,0.31-0.38c-0.39-0.78-1.34-1.14-2.11-1.49
								c-1.25-0.57-2.53-0.89-3.88-1.11c-2.69-0.44-5.18-0.65-7.77,0.31c-1.03,0.38-2.06,0.78-2.96,1.43
								c-0.57,0.41-0.8,0.97-1.47,0.75c-0.53-0.17-0.68-0.72-0.95-1.2c-0.88-1.55-1.54-2.7-1.27-4.53c0.2-1.35,0.54-2.62,0.83-3.94
								c0.04-0.17-0.14-0.36-0.31-0.33c-1.15,0.22-2.23,1.84-2.93,2.66c-1.16,1.34-2.34,2.89-2.97,4.57
								C397.08,26.6,396.89,28.11,397.64,29.29z"/>
						</g>
					</g>
				</g>
				<g>
					<g>
						<g>
							<path class="st0" d="M343.29,53.25c0.73,0.86,2.1,0.11,1.85-0.92c1.73-0.09,3.85,0.74,5.27,1.21c2.1,0.7,4.03,2.26,4.82,4.4
								c0.73,1.98,0.53,4.54-0.23,6.49c-0.46,1.18-1.11,1.98-2.23,2.57c-0.53,0.28-2.02,1.02-2.87,0.88
								c0.57-0.39,0.32-1.15-0.55-1.51c-1.45-0.6-2.64,0.65-2.65,2.1c-0.02,1.92,1.6,3.79,3.35,4.36c0.46,0.15,0.97,0.23,1.51,0.24
								c1.84,0.55,3.94,0.48,5.6-0.44c2.36-1.3,3.61-3.88,3.91-6.47c0.35-2.92-0.03-5.57-1.53-8.1c-1.74-2.93-4.2-4.5-7.02-6.29
								c-0.16-0.1-0.34-0.03-0.42,0.08c-1.73-1.01-3.94-2.09-5.86-1.71C345.31,50.31,342.19,51.95,343.29,53.25z M360.59,64.24
								c-0.02,2.78-0.68,5.66-3.02,7.42c-1.15,0.87-2.58,1.22-4.01,1.17c1.02-0.25,1.97-0.69,2.65-1.29
								c4.18-3.67,3.31-9.71,1.28-14.31c-0.46-1.04-1.05-1.91-1.76-2.68c0.86,0.65,1.66,1.36,2.32,2.24
								C359.74,59.08,360.61,61.4,360.59,64.24z"/>
						</g>
					</g>
				</g>
				<g>
					<g>
						<g>
							<path class="st0" d="M329.82,42.59c0,0-0.05-7.85,4.84-5.17c4.51,2.47,10.46,12.97,25.38,17.54
								c-0.16,0.11-0.21,0.39,0.02,0.5c1.18,0.53,2.21,1.1,3.33,1.77c0.89,0.53,1.84,0.9,2.87,1.03c2.13,0.28,4.44,0.13,6.57-0.06
								c4.21-0.39,8.14-1.66,11.72-3.93c3.78-2.4,6.37-6.24,7.89-10.41c0.81-2.21,1.41-4.5,1.56-6.85c0.05-0.76,0.23-1.91-0.41-2.45
								c-0.02-0.77-0.12-1.52-0.33-2.23c-0.71-2.4-2.26-4.36-4.23-5.79c-0.62-0.57-1.34-1.04-2.19-1.39
								c-0.38-0.16-0.77-0.29-1.15-0.41c-0.33-0.12-0.66-0.24-0.99-0.34c-0.08-0.02-0.15-0.01-0.2,0.02
								c-6.83-1.47-13.06,2.72-12.01,7.55c1.17,5.38,6.94,4.39,7.44,0.85c0,0,0.72-1.24-0.47-2.09c-1.18-0.85,1.38-2.35,3.48-0.78
								c2.1,1.58,6.66,5.35-1.51,15.12c-8.68,10.39-22.68,14.17-39.43-4.19C325.26,22.54,323.4,43.29,329.82,42.59z M385.68,50.31
								c0.47-0.19,6.53-5.52,7.61-12.21c0.11-0.68,0.21-1.41,0.26-2.14c0.09,1.31-0.42,3.4-0.53,3.9c-0.47,2.14-1.19,4.27-2.17,6.23
								c-1.86,3.71-4.36,6.5-7.98,8.52c-3.42,1.9-7.12,2.85-11.02,3.1c-1.93,0.13-4.1,0.31-6.01-0.09c-1.21-0.25-2.2-0.9-3.22-1.56
								c-0.53-0.34-1.07-0.57-1.63-0.81c0.96,0.27,1.96,0.52,2.99,0.74C373.75,58.05,380.93,54.64,385.68,50.31z"/>
						</g>
					</g>
				</g>
				<g>
					<g>
						<g>
							<path class="st0" d="M352.95,53.58c0.25-0.18,0.55-0.24,0.88-0.23c0.03,0.03,0.07,0.05,0.13,0.07
								c0.17,0.03,0.34,0.04,0.51,0.04c1.02,0.29,2.13,1.07,2.76,1.48c1.21,0.79,2.52,1.65,3.25,2.93c0.73,1.27,1.3,2.83,1.49,4.3
								c0.16,1.23-0.28,3.03-1.29,3.87c0,0,0,0.01-0.01,0.01c0.04,0.27,0.05,0.53,0.01,0.79c0,0,0.01,0,0.01,0
								c1.74-0.54,3.13-1.53,3.67-3.36c0.49-1.65,0.09-3.38-0.85-4.79c-1.09-1.64-2.39-3.48-4.14-4.46c-0.9-0.51-1.9-0.86-2.9-1.1
								c-0.57-0.14-1.09-0.15-1.61-0.17c-0.78-0.29-1.59-0.39-2.26,0.13C352.29,53.32,352.63,53.81,352.95,53.58z"/>
						</g>
					</g>
				</g>
				<g>
					<g>
						<g>
							<path class="st0" d="M352.26,61.15c-0.3,0.47-0.42,1.14-0.42,1.59c0.01,1.6,1.06,2.33,2.44,2.82
								c0.01,0.09,0.05,0.17,0.17,0.22c0.63,0.25,2.04-0.46,1.38-1.22c-0.12-0.14-0.39-0.16-0.54-0.22
								c-0.31-0.11-0.61-0.26-0.91-0.39c-0.84-0.5-1.82-1.39-1.64-2.35c0.02-0.09,0.04-0.19,0.08-0.27c0,0,0-0.01,0-0.01
								c-0.03,1.1,0.82,2.21,2.04,1.65c1.9-0.87,1.24-3.33,0.94-4.89c-0.07-0.37-0.66-0.32-0.59,0.06c0.11,0.59,0.28,1.2,0.32,1.8
								c0.11,0.69-0.01,1.36-0.38,2c-1.45,0.12-2-0.21-1.65-1c0.06-0.21-0.16-0.34-0.33-0.35c-0.31-0.01-0.55,0.14-0.75,0.35
								c-0.06,0.03-0.11,0.07-0.15,0.15C352.27,61.11,352.27,61.13,352.26,61.15z"/>
						</g>
					</g>
				</g>
			</g>
			<g>
				<g>
					<g>
						<path class="st0" d="M408.21,36.05c0,0,8.97-7.38,14.41-5.23s3.64,4.77,2.34,4.18C423.66,34.42,417.74,30.18,408.21,36.05z"/>
					</g>
				</g>
			</g>
		</g>
		<g>
			<g>
				<g>
					<g>
						<path class="st0" d="M247.22,48.75c1.83-3.76,6.13-6.17,9.94-7.52c0.6-0.21,1.23-0.38,1.87-0.51c0.08,0,0.16-0.01,0.24-0.01
							c0.14,0,0.25-0.04,0.34-0.1c0.68-0.11,1.38-0.16,2.09-0.19c1.52,0.21,2.99,0.57,4.5,1.11c-0.75,0.05-1.51,0.13-2.26,0.24
							c-2.94,0.28-5.76,1.02-7.97,2.06c-1.27,0.59-2.32,1.33-3.16,2.16c-3.22,2.44-5.54,5.91-5.62,10.24
							c-0.01,0.37,0.02,0.76,0.08,1.16C246.15,54.59,245.89,51.47,247.22,48.75z M250.79,40.9c1.28-0.25,2.59-0.37,3.89-0.46
							c-1.22,0.5-2.41,1.12-3.58,1.68c-2.57,1.22-5.2,2.47-6.93,4.74C243.27,43.24,248.15,41.42,250.79,40.9z M265.22,38.82
							c1,0.36,1.95,0.78,2.87,1.26c-1.81-0.43-3.61-0.7-5.4-0.73c-3.65-0.63-7.38-0.41-11.32,0.21c-0.86,0.14-1.72,0.32-2.54,0.56
							c1.27-1.84,5.46-2.67,7.29-2.79c2.67-0.17,5.33,0.3,7.88,1.08c0.32,0.1,0.63,0.2,0.93,0.31
							C265.02,38.78,265.12,38.81,265.22,38.82z"/>
					</g>
				</g>
			</g>
			<g>
				<g>
					<g>
						<g>
							<path class="st0" d="M275.58,26.41c-0.65-1.67-1.86-3.2-3.04-4.52c-0.72-0.81-1.83-2.41-2.98-2.61
								c-0.18-0.03-0.35,0.16-0.31,0.33c0.31,1.32,0.67,2.58,0.89,3.93c0.3,1.83-0.34,2.99-1.2,4.55c-0.26,0.48-0.4,1.03-0.93,1.21
								c-0.67,0.23-0.91-0.33-1.49-0.73c-0.91-0.63-1.95-1.01-2.99-1.38c-2.61-0.92-5.1-0.66-7.78-0.18
								c-1.35,0.24-2.62,0.59-3.86,1.18c-0.76,0.36-1.7,0.73-2.08,1.52c-0.09,0.2,0.12,0.42,0.32,0.38c2.25-0.45,4.16-0.3,6.33,0.47
								c1.95,0.7,3.87,1.82,5.66,2.87c1.71,1,3.14,2.32,4.76,3.43c1.71,1.16,3.06,2.87,4.29,4.52c2.35,3.15,4.71,6.47,7.89,8.86
								c1.43,1.08,2.98,2.09,4.68,2.68c0.81,0.28,2.07,0.98,3.02,0.85c0.05,0.08,0.15,0.14,0.27,0.11c0.09-0.02,0.18-0.04,0.27-0.07
								c0.2-0.05,0.33-0.3,0.17-0.47c-1.03-1.11-2.54-1.41-3.82-2.16c-1.87-1.09-3.46-2.78-4.8-4.48c-1.35-1.72-2.33-4.26-2.65-6.4
								c-0.2-1.3-0.18-2.52,0.41-3.72c0.63-1.28,1.4-1.76,2.75-2.12c0.23-0.06,0.29-0.28,0.17-0.47c-0.81-1.22-2.88-1.86-4.31-1.81
								c-0.8,0.03-1.42,0.34-2.09,0.76c-0.53,0.34-0.86,0.85-1.27,1.28c0.04-1.72,2.91-2.64,3.67-3.89
								C276.27,29.15,276.06,27.64,275.58,26.41z"/>
						</g>
					</g>
				</g>
				<g>
					<g>
						<g>
							<path class="st0" d="M327.28,50.32c-1.92-0.35-4.11,0.78-5.83,1.81c-0.09-0.12-0.27-0.18-0.43-0.08
								c-2.78,1.84-5.22,3.45-6.91,6.41c-1.46,2.55-1.79,5.21-1.39,8.12c0.35,2.58,1.64,5.14,4.02,6.4
								c1.68,0.89,3.79,0.93,5.61,0.35c0.53-0.02,1.05-0.11,1.51-0.27c1.74-0.59,3.33-2.5,3.28-4.41c-0.04-1.45-1.24-2.68-2.69-2.05
								c-0.86,0.37-1.1,1.14-0.52,1.52c-0.85,0.15-2.35-0.55-2.89-0.83c-1.13-0.57-1.8-1.36-2.27-2.53
								c-0.79-1.93-1.04-4.5-0.34-6.49c0.76-2.15,2.66-3.74,4.75-4.48c1.41-0.5,3.52-1.36,5.25-1.3c-0.23,1.03,1.15,1.77,1.86,0.89
								C331.37,52.08,328.21,50.49,327.28,50.32z M315.6,57.19c0.64-0.89,1.43-1.62,2.28-2.28c-0.7,0.78-1.28,1.66-1.72,2.71
								c-1.96,4.63-2.72,10.68,1.52,14.28c0.69,0.59,1.65,1.01,2.67,1.24c-1.43,0.07-2.87-0.26-4.03-1.1
								c-2.37-1.73-3.08-4.6-3.15-7.37C313.1,61.83,313.94,59.5,315.6,57.19z"/>
						</g>
					</g>
				</g>
				<g>
					<g>
						<g>
							<path class="st0" d="M331.36,41.02c-16.44,18.64-30.49,15.09-39.35,4.84c-8.33-9.63-3.84-13.49-1.76-15.1
								s4.66-0.15,3.49,0.72s-0.43,2.1-0.43,2.1c0.56,3.52,6.34,4.42,7.42-0.98c0.97-4.85-5.33-8.93-12.13-7.35
								c-0.05-0.03-0.12-0.05-0.2-0.02c-0.33,0.1-0.66,0.23-0.99,0.35c-0.38,0.13-0.76,0.27-1.14,0.43
								c-0.84,0.36-1.55,0.85-2.16,1.42c-1.94,1.47-3.46,3.46-4.13,5.86c-0.2,0.71-0.28,1.47-0.29,2.23
								c-0.63,0.55-0.43,1.7-0.37,2.46c0.19,2.35,0.83,4.63,1.67,6.83c1.59,4.14,4.24,7.94,8.06,10.28
								c3.61,2.21,7.57,3.42,11.78,3.73c2.13,0.16,4.44,0.27,6.57-0.05c1.03-0.15,1.97-0.54,2.85-1.08c1.11-0.68,2.13-1.27,3.3-1.82
								c0.23-0.11,0.18-0.39,0.01-0.5c14.84-4.82,20.61-15.41,25.08-17.96c4.85-2.76,4.92,5.09,4.92,5.09
								C350.01,43.11,347.81,22.38,331.36,41.02z M309.64,56.48c1.03-0.24,2.02-0.5,2.98-0.79c-0.55,0.24-1.09,0.48-1.61,0.84
								c-1,0.67-1.99,1.34-3.19,1.61c-1.9,0.42-4.07,0.28-6.01,0.19c-3.9-0.19-7.62-1.07-11.07-2.92c-3.66-1.96-6.2-4.71-8.12-8.38
								c-1.02-1.95-1.77-4.06-2.28-6.19c-0.12-0.49-0.66-2.58-0.59-3.89c0.06,0.73,0.17,1.45,0.29,2.13
								c1.19,6.67,7.34,11.91,7.81,12.08C292.68,55.41,299.91,58.7,309.64,56.48z"/>
						</g>
					</g>
				</g>
				<g>
					<g>
						<g>
							<path class="st0" d="M320.63,53.88c-0.25-0.18-0.56-0.23-0.88-0.22c-0.03,0.03-0.07,0.06-0.13,0.07
								c-0.17,0.03-0.34,0.04-0.51,0.05c-1.01,0.31-2.11,1.11-2.73,1.53c-1.19,0.81-2.49,1.7-3.2,2.98
								c-0.71,1.28-1.26,2.85-1.42,4.32c-0.14,1.23,0.33,3.03,1.36,3.85c0,0,0,0.01,0.01,0.01c-0.04,0.27-0.04,0.53,0,0.79
								c0,0-0.01,0-0.01,0c-1.75-0.51-3.16-1.48-3.72-3.3c-0.51-1.65-0.15-3.38,0.77-4.8c1.06-1.65,2.33-3.52,4.06-4.53
								c0.89-0.52,1.88-0.89,2.88-1.15c0.56-0.15,1.09-0.16,1.61-0.19c0.77-0.3,1.59-0.41,2.26,0.09
								C321.29,53.61,320.96,54.11,320.63,53.88z"/>
						</g>
					</g>
				</g>
				<g>
					<g>
						<g>
							<path class="st0" d="M321.43,61.38c-0.03-0.08-0.09-0.12-0.15-0.15c-0.2-0.21-0.44-0.35-0.75-0.33
								c-0.17,0.01-0.39,0.14-0.33,0.35c0.36,0.79-0.18,1.13-1.64,1.03c-0.38-0.64-0.51-1.3-0.41-1.99c0.03-0.6,0.19-1.21,0.28-1.8
								c0.06-0.38-0.53-0.42-0.59-0.05c-0.27,1.56-0.89,4.03,1.02,4.87c1.24,0.54,2.06-0.59,2.02-1.68c0,0,0,0.01,0,0.01
								c0.03,0.08,0.06,0.18,0.08,0.27c0.19,0.95-0.77,1.86-1.6,2.38c-0.3,0.14-0.59,0.29-0.9,0.41c-0.15,0.06-0.42,0.09-0.54,0.23
								c-0.65,0.77,0.78,1.46,1.4,1.2c0.12-0.05,0.16-0.14,0.17-0.22c1.37-0.51,2.41-1.26,2.39-2.86c-0.01-0.46-0.14-1.11-0.45-1.58
								C321.44,61.42,321.44,61.4,321.43,61.38z"/>
						</g>
					</g>
				</g>
			</g>
			<g>
				<g>
					<g>
						<path class="st0" d="M265.09,37.28c0,0-9.09-7.23-14.5-4.99c-5.41,2.24-3.56,4.83-2.27,4.22
							C249.62,35.9,255.46,31.57,265.09,37.28z"/>
					</g>
				</g>
			</g>
		</g>
	</g>
	<g>
		<path class="st0" d="M389.78,64.35c0.19,0.49,0.42,0.84,0.66,1.06c0.02,0.05,0.04,0.09,0.06,0.14c0.11,0.19,0.24,0.35,0.39,0.49
			c0.08,0.12,0.16,0.24,0.25,0.36c0.68,0.84,1.68,1.56,2.79,1.65c1.47,0.12,2.82-0.74,3.28-2.03c0.15-0.16,0.28-0.35,0.37-0.56
			c0.49-1.12-0.4-2.61-1.51-3.3c-0.04-0.03-0.07-0.06-0.11-0.09c14.34-11.03,21.27,3.88,21.74,5.79c0.41,1.66,0.17,4.8-2.34,4.62
			c-1.84-0.13-2.91-0.92-2.26-2.62c0.18-0.48-0.29-1.1-0.8-1.05c-2.55,0.25-2.56,3-1.32,4.73c2,2.78,6.49,3.85,9.72,3.58
			c3.25-0.27,5.41-2.88,5.69-6.07c0.08-0.89-0.03-1.76-0.28-2.61c5.27,4.69,9.17,10.55,13.13,16.51c1.16,1.21,2.37,2.37,3.69,3.42
			c4.93,3.91,11.3,6.14,15.49,10.88c0.5,0.57,1.51,0.11,1.48-0.61c-0.04-1.41-0.38-3.13-1.05-4.66c0.2,0.05,0.39,0.09,0.58,0.14
			c3.37,0.86,6.94,0.84,10.44,1.08c7.53,0.51,19.19-16.97,16.52-24.3c-1.06,0.33-2.11,0.33-3.38,0.2
			c-0.68-0.07,2.2-11.99-7.11-17.53c-2.53-1.51-5.14-3.57-7.99-4.36c-3.8-1.05-7.91-0.47-11.65,0.71
			c-5.22,1.65-9.36,7.53-6.42,12.84c1.9,3.43,8.38,5.56,10.86,1.57c0.2-0.32,0.11-0.74-0.13-1.01c-1.77-1.93,5.13-13.01,12.42,3.63
			c0.72,1.65,0.75,3.42,0.76,5.05c-0.24,1.48-0.72,2.88-1.48,4c-2.95,4.34-8.86,4.2-13.42,3.28c-7.78-1.56-13.01-6.24-19.01-10.95
			c-5.91-4.64-12.3-8.82-19.6-10.88c-1.29-0.36-2.6-0.65-3.92-0.87c-3.89-1.7-8.12-2.83-12.31-2.93c-3.92-0.1-9.34,0.42-12.43,3.18
			C389.47,58.75,388.73,61.66,389.78,64.35z M423.61,60.44c3.26,1.29,6.37,2.97,9.28,4.91c6.6,4.4,11.85,10.31,19.21,13.53
			c5.48,2.39,13.66,4.32,19.04,0.59c0.29-0.2,0.56-0.41,0.82-0.64c-1.69,2.64-4.55,4.48-8.69,4.92
			c-10.34,1.1-18.11-7.16-25.37-13.19c-2.87-2.39-5.86-4.71-8.93-6.95C427.18,62.53,425.4,61.48,423.61,60.44z"/>
	</g>
	<g>
		<path class="st0" d="M287.47,60.31c-3.09-2.77-8.51-3.28-12.43-3.18c-4.19,0.11-8.42,1.24-12.31,2.93
			c-1.32,0.22-2.63,0.5-3.92,0.87c-7.3,2.06-13.69,6.23-19.6,10.88c-6,4.71-11.23,9.39-19.01,10.95
			c-4.56,0.91-10.48,1.06-13.42-3.28c-0.76-1.12-1.24-2.52-1.48-4c0.01-1.63,0.04-3.41,0.76-5.05c7.29-16.64,14.2-5.56,12.42-3.63
			c-0.25,0.27-0.33,0.69-0.13,1.01c2.48,3.99,8.96,1.86,10.86-1.57c2.94-5.32-1.2-11.19-6.42-12.84c-3.74-1.18-7.85-1.76-11.65-0.71
			c-2.85,0.79-5.46,2.85-7.99,4.36c-9.31,5.54-6.43,17.47-7.11,17.53c-1.26,0.12-2.31,0.13-3.38-0.2
			c-2.67,7.33,8.99,24.81,16.52,24.3c3.49-0.24,7.07-0.22,10.44-1.08c0.18-0.05,0.38-0.09,0.58-0.14c-0.68,1.53-1.01,3.26-1.05,4.66
			c-0.02,0.73,0.98,1.18,1.48,0.61c4.19-4.75,10.56-6.97,15.49-10.88c1.32-1.05,2.53-2.21,3.69-3.42
			c3.96-5.96,7.87-11.82,13.13-16.51c-0.24,0.85-0.35,1.72-0.28,2.61c0.28,3.18,2.44,5.79,5.69,6.07c3.24,0.27,7.72-0.8,9.72-3.58
			c1.24-1.72,1.23-4.48-1.32-4.73c-0.51-0.05-0.99,0.58-0.8,1.05c0.65,1.7-0.42,2.49-2.26,2.62c-2.51,0.18-2.76-2.96-2.34-4.62
			c0.47-1.91,7.39-16.82,21.74-5.79c-0.04,0.03-0.07,0.06-0.11,0.09c-1.11,0.69-2,2.18-1.51,3.3c0.09,0.21,0.22,0.4,0.37,0.56
			c0.46,1.29,1.81,2.15,3.28,2.03c1.11-0.09,2.11-0.81,2.79-1.65c0.1-0.12,0.18-0.24,0.25-0.36c0.15-0.14,0.28-0.3,0.39-0.49
			c0.03-0.04,0.04-0.09,0.06-0.14c0.25-0.22,0.47-0.57,0.66-1.06C290.34,65.13,289.6,62.21,287.47,60.31z M250.12,67.07
			c-3.07,2.23-6.06,4.56-8.93,6.95c-7.26,6.04-15.04,14.3-25.37,13.19c-4.14-0.44-7-2.29-8.69-4.92c0.26,0.23,0.53,0.44,0.82,0.64
			c5.37,3.73,13.55,1.81,19.04-0.59c7.37-3.22,12.61-9.13,19.21-13.53c2.91-1.94,6.02-3.62,9.28-4.91
			C253.67,64.94,251.89,65.99,250.12,67.07z"/>
	</g>
</g>
</svg>
